<mxfile modified="2021-09-01T03:06:01.609Z" host="app.diagrams.net" agent="5.0 (Windows NT 10.0; Win64; x64) AppleWebKit/537.36 (KHTML, like Gecko) Chrome/92.0.4515.159 Safari/537.36" etag="Ekhk0-a0J29O4AiybDp_" version="14.9.3" type="github">
  <diagram id="WI9T0HZ2pTsCkuznbFz-" name="Page-1">
    <mxGraphModel dx="1422" dy="772" grid="1" gridSize="10" guides="1" tooltips="1" connect="1" arrows="1" fold="1" page="1" pageScale="1" pageWidth="1169" pageHeight="827" math="0" shadow="0">
      <root>
        <mxCell id="0" />
        <mxCell id="1" parent="0" />
        <mxCell id="AcxdMaKK0mU5kZiv2lnr-16" style="edgeStyle=orthogonalEdgeStyle;rounded=0;orthogonalLoop=1;jettySize=auto;html=1;strokeColor=#808080;" parent="1" edge="1">
          <mxGeometry relative="1" as="geometry">
            <Array as="points">
              <mxPoint x="220" y="224" />
              <mxPoint x="220" y="224" />
            </Array>
            <mxPoint x="174" y="224" as="sourcePoint" />
            <mxPoint x="300" y="224" as="targetPoint" />
          </mxGeometry>
        </mxCell>
        <mxCell id="066p8uKYUl0VeOlLMkv1-1" value="hexo g" style="text;html=1;align=center;verticalAlign=middle;resizable=0;points=[];autosize=1;strokeColor=none;" vertex="1" parent="1">
          <mxGeometry x="210" y="200" width="50" height="20" as="geometry" />
        </mxCell>
        <mxCell id="066p8uKYUl0VeOlLMkv1-2" value="撰写文章.md" style="rounded=1;whiteSpace=wrap;html=1;" vertex="1" parent="1">
          <mxGeometry x="50" y="186" width="120" height="60" as="geometry" />
        </mxCell>
        <mxCell id="066p8uKYUl0VeOlLMkv1-3" value="作者" style="text;html=1;align=center;verticalAlign=middle;resizable=0;points=[];autosize=1;strokeColor=none;" vertex="1" parent="1">
          <mxGeometry x="90" y="150" width="40" height="20" as="geometry" />
        </mxCell>
        <mxCell id="066p8uKYUl0VeOlLMkv1-4" value="Hexo生成静态网页" style="rounded=1;whiteSpace=wrap;html=1;" vertex="1" parent="1">
          <mxGeometry x="300" y="186" width="120" height="60" as="geometry" />
        </mxCell>
        <mxCell id="066p8uKYUl0VeOlLMkv1-5" value="hexo" style="text;html=1;align=center;verticalAlign=middle;resizable=0;points=[];autosize=1;strokeColor=none;" vertex="1" parent="1">
          <mxGeometry x="340" y="150" width="40" height="20" as="geometry" />
        </mxCell>
        <mxCell id="066p8uKYUl0VeOlLMkv1-6" value="GitHub部署Pages" style="rounded=0;whiteSpace=wrap;html=1;" vertex="1" parent="1">
          <mxGeometry x="550" y="180" width="120" height="60" as="geometry" />
        </mxCell>
        <mxCell id="066p8uKYUl0VeOlLMkv1-8" style="edgeStyle=orthogonalEdgeStyle;rounded=0;orthogonalLoop=1;jettySize=auto;html=1;strokeColor=#808080;" edge="1" parent="1">
          <mxGeometry relative="1" as="geometry">
            <Array as="points">
              <mxPoint x="466" y="220" />
              <mxPoint x="466" y="220" />
            </Array>
            <mxPoint x="420" y="220" as="sourcePoint" />
            <mxPoint x="546" y="220" as="targetPoint" />
          </mxGeometry>
        </mxCell>
        <mxCell id="066p8uKYUl0VeOlLMkv1-9" value="hexo d" style="text;html=1;align=center;verticalAlign=middle;resizable=0;points=[];autosize=1;strokeColor=none;" vertex="1" parent="1">
          <mxGeometry x="455" y="190" width="50" height="20" as="geometry" />
        </mxCell>
        <mxCell id="066p8uKYUl0VeOlLMkv1-11" value="" style="endArrow=classic;html=1;exitX=0.5;exitY=0;exitDx=0;exitDy=0;" edge="1" parent="1" source="066p8uKYUl0VeOlLMkv1-6">
          <mxGeometry width="50" height="50" relative="1" as="geometry">
            <mxPoint x="590" y="190" as="sourcePoint" />
            <mxPoint x="510" y="80" as="targetPoint" />
            <Array as="points">
              <mxPoint x="610" y="80" />
            </Array>
          </mxGeometry>
        </mxCell>
        <mxCell id="066p8uKYUl0VeOlLMkv1-12" value="访客，终端" style="rounded=0;whiteSpace=wrap;html=1;" vertex="1" parent="1">
          <mxGeometry x="385" y="40" width="120" height="60" as="geometry" />
        </mxCell>
      </root>
    </mxGraphModel>
  </diagram>
</mxfile>
